<svg className="w-[88px]" fill="white" viewBox="0 0 642 150" width="125" xmlns="http://www.w3.org/2000/svg">
	<g transform="matrix(3.6457 0 0 3.6457 5.5147 1.9745)">
		<path
			d="m23.8 39.4h7.3v-29.4h-7.3v2.4c-6.9-4.8-16.3-3.1-21.1 3.8s-3.1 16.3 3.8 21.1c5.2 3.6 12.1 3.6 17.3 0zm-16.7-14.6c0-4.6 3.8-8.4 8.4-8.4s8.4 3.8 8.4 8.4-3.8 8.4-8.4 8.4-8.4-3.7-8.4-8.4v0m50.8-24.8v12.4c-6.9-4.8-16.3-3-21.1 3.8s-3 16.3 3.8 21.1c5.2 3.6 12.1 3.6 17.3 0v2.1h7.3v-39.4zm-16.7 24.8c0-4.6 3.8-8.4 8.4-8.4s8.4 3.8 8.4 8.4-3.8 8.4-8.4 8.4-8.4-3.7-8.4-8.4v0m34.9-24.8h-7.3v7.3h7.3zm0 10h-7.3v29.4h7.3zm26.8-10v12.4c-6.9-4.8-16.3-3.1-21.1 3.8s-3.1 16.3 3.8 21.1c5.2 3.6 12.1 3.6 17.3 0v2.1h7.3v-39.4zm-16.7 24.8c0-4.6 3.8-8.4 8.4-8.4s8.4 3.8 8.4 8.4-3.8 8.4-8.4 8.4-8.4-3.7-8.4-8.4v0m50.9 14.6h7.3v-29.4h-7.3v2.4c-6.9-4.8-16.3-3.1-21.1 3.8s-3.1 16.3 3.8 21.1c5.2 3.6 12.1 3.6 17.3 0zm-16.7-14.6c0-4.6 3.8-8.4 8.4-8.4s8.4 3.8 8.4 8.4-3.8 8.4-8.4 8.4c-4.7 0-8.4-3.7-8.4-8.4v0m26.7 5c0.2 5.9 5.3 10.1 13.7 10.1 6.9 0 12.6-3 12.6-9.6 0-4.6-2.6-7.3-8.6-8.4l-4.7-0.9c-3-0.6-5.1-1.1-5.1-2.9 0-2 2-2.8 4.5-2.8 3.7 0 5.2 1.8 5.3 4h7.4c-0.4-5.8-5-9.6-12.4-9.6-7.6 0-12.2 4.2-12.2 9.7 0 6.7 5.4 7.8 10.1 8.6l3.9 0.7c2.8 0.5 4 1.3 4 2.9 0 1.4-1.4 2.9-4.7 2.9-4.8 0-6.3-2.5-6.4-4.6z" />
	</g>
</svg>